<?xml version="1.0" encoding="UTF-8"?>
<svg version="1.1" xmlns="http://www.w3.org/2000/svg" width="109" height="124">
<path d="M0 0 C35.97 0 71.94 0 109 0 C109 40.92 109 81.84 109 124 C73.03 124 37.06 124 0 124 C0 83.08 0 42.16 0 0 Z " fill="#E7E7E6" transform="translate(0,0)"/>
<path d="M0 0 C2.64144343 0.03375647 4.24271081 0.11902248 6.4921875 1.53125 C7.875 3 7.875 3 9.75 6.4375 C9.41616435 11.32979484 8.18467955 15.32979208 6.24609375 19.80859375 C5.75302734 20.95908203 5.25996094 22.10957031 4.75195312 23.29492188 C4.23568359 24.47634766 3.71941406 25.65777344 3.1875 26.875 C2.66736328 28.08349609 2.14722656 29.29199219 1.61132812 30.53710938 C0.33170626 33.50724085 -0.95558415 36.47379326 -2.25 39.4375 C-1.92 39.7675 -1.59 40.0975 -1.25 40.4375 C-0.89550781 39.79425781 -0.54101562 39.15101562 -0.17578125 38.48828125 C6.77990213 26.68214554 16.37011998 16.56466171 28.75 10.4375 C29.41 10.1075 30.07 9.7775 30.75 9.4375 C36.68969066 8.7967035 42.55624356 9.28834451 47.75 12.4375 C50.45111503 15.31208113 51.1624464 17.2681099 51.125 21.1875 C51.13660156 22.38632812 51.13660156 22.38632812 51.1484375 23.609375 C50.60632149 27.45733567 49.22106066 30.86887607 47.75 34.4375 C47.46382813 35.14165039 47.17765625 35.84580078 46.8828125 36.57128906 C39.03852942 55.53972467 27.47973563 75.11868766 9.6875 86.375 C6.04865581 87.69117769 3.5904577 87.99611203 -0.25 87.4375 C-3 85.1875 -3 85.1875 -5.25 82.4375 C-5.806875 81.81875 -6.36375 81.2 -6.9375 80.5625 C-11.01691099 73.95773935 -10.47196884 66.94744591 -10.25 59.4375 C-10.91 59.4375 -11.57 59.4375 -12.25 59.4375 C-12.48203125 60.19804688 -12.7140625 60.95859375 -12.953125 61.7421875 C-14.72529474 66.79180368 -16.85832146 71.66011957 -19 76.5625 C-19.44811035 77.59133301 -19.8962207 78.62016602 -20.35791016 79.68017578 C-23.08142546 85.89089148 -25.91429644 91.99621991 -29.0234375 98.0234375 C-30.52876895 100.98615991 -31.84769992 104.01186889 -33.171875 107.05859375 C-35.3774236 111.92518469 -37.83192062 116.67388362 -40.25 121.4375 C-44.50609012 120.81518094 -46.37142412 119.71176857 -49.33203125 116.49609375 C-52.97046094 108.33672164 -48.19963417 98.19044513 -45.25 90.4375 C-42.85342683 84.59437909 -40.18929842 78.87260433 -37.51660156 73.15185547 C-35.32050231 68.44556568 -33.1632246 63.72146603 -31 59 C-30.54705566 58.01386719 -30.09411133 57.02773438 -29.62744141 56.01171875 C-25.8775089 47.83855564 -22.17811195 39.64316106 -18.5 31.4375 C-18.2230127 30.81968658 -17.94602539 30.20187317 -17.66064453 29.56533813 C-13.85577682 21.0737512 -10.09609556 12.56455404 -6.421875 4.015625 C-4.71599182 0.26268201 -4.01265451 0.21923443 0 0 Z " fill="#070404" transform="translate(56.25,-0.4375)"/>
<path d="M0 0 C17.16 0 34.32 0 52 0 C47.50015408 11.24961479 47.50015408 11.24961479 45.08203125 16.6171875 C44.55464355 17.79063721 44.02725586 18.96408691 43.48388672 20.1730957 C42.92681654 21.40709031 42.36968633 22.64105783 41.8125 23.875 C41.22915125 25.17073685 40.64598287 26.46655493 40.06298828 27.76245117 C38.90615651 30.33315498 37.74823043 32.90336117 36.58935547 35.47314453 C35.23463901 38.47932486 33.88342612 41.48701859 32.53515625 44.49609375 C26.7657928 57.36542638 20.89106238 70.1859854 15 83 C14.67 82.34 14.34 81.68 14 81 C9.38 81 4.76 81 0 81 C0 54.27 0 27.54 0 0 Z " fill="#DBD8D1" transform="translate(0,0)"/>
<path d="M0 0 C2.64144343 0.03375647 4.24271081 0.11902248 6.4921875 1.53125 C7.875 3 7.875 3 9.75 6.4375 C9.42401544 11.49007349 8.07589379 15.53992996 6.02734375 20.140625 C5.76240616 20.7450946 5.49746857 21.34956421 5.22450256 21.97235107 C4.38694852 23.88110688 3.53825318 25.78459478 2.6875 27.6875 C1.83433178 29.60514297 0.98379302 31.52380201 0.13978577 33.44549561 C-0.62206616 35.1789576 -1.39295283 36.90844052 -2.16430664 38.63769531 C-3.43077186 41.40318792 -3.43077186 41.40318792 -3.25 44.4375 C-2.59 44.1075 -1.93 43.7775 -1.25 43.4375 C-2.3072129 46.20251836 -3.44330281 48.8086414 -4.8125 51.4375 C-6.1271485 54.18111426 -6.81025027 56.44720184 -7.25 59.4375 C-8.57 59.4375 -9.89 59.4375 -11.25 59.4375 C-19.50252164 77.1922246 -19.50252164 77.1922246 -27.5 95.0625 C-31.13039217 103.33483114 -35.13701476 111.39615229 -39.25 119.4375 C-39.745 120.4275 -39.745 120.4275 -40.25 121.4375 C-44.51238678 121.19393504 -46.47572228 119.59848472 -49.33203125 116.49609375 C-52.97046094 108.33672164 -48.19963417 98.19044513 -45.25 90.4375 C-42.85342683 84.59437909 -40.18929842 78.87260433 -37.51660156 73.15185547 C-35.32050231 68.44556568 -33.1632246 63.72146603 -31 59 C-30.54705566 58.01386719 -30.09411133 57.02773438 -29.62744141 56.01171875 C-25.8775089 47.83855564 -22.17811195 39.64316106 -18.5 31.4375 C-18.2230127 30.81968658 -17.94602539 30.20187317 -17.66064453 29.56533813 C-13.85577682 21.0737512 -10.09609556 12.56455404 -6.421875 4.015625 C-4.71599182 0.26268201 -4.01265451 0.21923443 0 0 Z " fill="#050303" transform="translate(56.25,-0.4375)"/>
<path d="M0 0 C15.84 0 31.68 0 48 0 C48 26.73 48 53.46 48 81 C36.12 81 24.24 81 12 81 C13.98 78.69 15.96 76.38 18 74 C28.28058135 61.55508573 35.93109284 49.00675225 42 34 C42.34289062 33.236875 42.68578125 32.47375 43.0390625 31.6875 C45.26044374 26.53887807 45.87087767 21.51882032 45 16 C42.48578369 12.13197491 39.42144918 11.00108283 35 10 C27.73977211 8.97260926 22.88083055 10.75273349 17 15 C7.41143568 22.72163201 -0.49029298 31.56967398 -7 42 C-8.20342948 38.38971155 -7.73148364 37.73750035 -6.234375 34.359375 C-5.83863281 33.45316406 -5.44289062 32.54695313 -5.03515625 31.61328125 C-4.61105469 30.66839844 -4.18695313 29.72351563 -3.75 28.75 C-3.34136719 27.82058594 -2.93273438 26.89117188 -2.51171875 25.93359375 C0.54103888 18.99372352 0.54103888 18.99372352 1.97119141 15.8972168 C3.98882433 11.4464864 4.26447526 8.78694204 3 4 C2.01 2.68 1.02 1.36 0 0 Z " fill="#D7D3CC" transform="translate(61,0)"/>
<path d="M0 0 C1.97786669 3.95573339 0.67202599 8.91875587 -0.64453125 12.99609375 C-1.66564459 15.38801679 -2.81698025 17.68325299 -4 20 C-4.28875 20.59312988 -4.5775 21.18625977 -4.875 21.79736328 C-11.49325466 35.37746143 -20.38664039 52.05495527 -33 61 C-36.3125 61.8125 -36.3125 61.8125 -39 61 C-42.18295163 56.98142861 -42.51878391 53.20895283 -42.5 48.25 C-42.52835938 47.58484375 -42.55671875 46.9196875 -42.5859375 46.234375 C-42.62293868 36.61406752 -35.94551183 29.2058208 -30.25 22 C-29.63165283 21.21471924 -29.01330566 20.42943848 -28.3762207 19.62036133 C-10.14002518 -3.27653875 -10.14002518 -3.27653875 0 0 Z " fill="#D9D6CE" transform="translate(91,14)"/>
<path d="M0 0 C0.66 0 1.32 0 2 0 C2.12117188 1.08539063 2.24234375 2.17078125 2.3671875 3.2890625 C2.53612469 4.73441404 2.70541425 6.17972442 2.875 7.625 C2.95363281 8.33785156 3.03226563 9.05070312 3.11328125 9.78515625 C3.19707031 10.48769531 3.28085937 11.19023438 3.3671875 11.9140625 C3.44050293 12.5529541 3.51381836 13.1918457 3.58935547 13.85009766 C4.12086378 16.63277434 5.10413223 19.31239669 6 22 C1.05 22 -3.9 22 -9 22 C-8.26004272 18.30021361 -7.71142947 16.03487715 -6.15234375 12.79296875 C-5.79462891 12.04208984 -5.43691406 11.29121094 -5.06835938 10.51757812 C-4.50858398 9.36418945 -4.50858398 9.36418945 -3.9375 8.1875 C-3.37192383 7.00510742 -3.37192383 7.00510742 -2.79492188 5.79882812 C-1.86829839 3.86347527 -0.93482533 1.93140451 0 0 Z " fill="#CAC6C0" transform="translate(44,59)"/>
<path d="M0 0 C2 1 2 1 3 3 C2.38253906 3.32871094 1.76507813 3.65742188 1.12890625 3.99609375 C-9.52389087 9.97917159 -16.41457233 18.05514266 -23.19506836 28.03491211 C-26.55122 32.8560162 -26.55122 32.8560162 -29.1550293 33.69140625 C-30.06828979 33.84416016 -30.06828979 33.84416016 -31 34 C-30.41417758 30.60222995 -29.38892273 29.38892273 -27 27 C-25.81540063 25.34603107 -24.65090461 23.67758978 -23.5 22 C-17.17371965 13.23158937 -9.74675942 4.96198661 0 0 Z " fill="#291E1B" transform="translate(83,11)"/>
<path d="M0 0 C0.33 0.99 0.66 1.98 1 3 C-0.48223336 5.35850359 -1.96809213 7.4526171 -3.6875 9.625 C-4.13544922 10.223125 -4.58339844 10.82125 -5.04492188 11.4375 C-7.51948068 14.62164845 -9.02495849 16.30147483 -13 17 C-12.4170795 13.61906111 -11.40096316 12.36104216 -9 10 C-7.45929863 7.97381721 -5.98053055 5.9102732 -4.5 3.83984375 C-3 2 -3 2 0 0 Z " fill="#1F1511" transform="translate(65,28)"/>
<path d="M0 0 C1.19882812 0.15275391 1.19882812 0.15275391 2.421875 0.30859375 C3.02515625 0.39238281 3.6284375 0.47617188 4.25 0.5625 C4.58 1.5525 4.91 2.5425 5.25 3.5625 C-0.03 3.5625 -5.31 3.5625 -10.75 3.5625 C-8.75 0.5625 -8.75 0.5625 -6.921875 -0.15234375 C-4.49228778 -0.47133632 -2.42703597 -0.32122535 0 0 Z " fill="#CFCFCE" transform="translate(59.75,120.4375)"/>
<path d="M0 0 C1.32 0.33 2.64 0.66 4 1 C4.33 5.29 4.66 9.58 5 14 C4.34 14 3.68 14 3 14 C2.67 14.99 2.34 15.98 2 17 C1.66592662 14.35425814 1.33270624 11.70841381 1 9.0625 C0.90460937 8.30775391 0.80921875 7.55300781 0.7109375 6.77539062 C0 1.11328125 0 1.11328125 0 0 Z " fill="#190E0A" transform="translate(45,58)"/>
<path d="M0 0 C0.66 0.99 1.32 1.98 2 3 C1.67 3.66 1.34 4.32 1 5 C1.33 5.99 1.66 6.98 2 8 C-1 10 -1 10 -4 10 C-2.8905928 6.51329166 -1.73662334 3.22515763 0 0 Z " fill="#C1BEBC" transform="translate(20,111)"/>
<path d="M0 0 C0.33 1.32 0.66 2.64 1 4 C0.34 4 -0.32 4 -1 4 C-1.2475 4.61875 -1.495 5.2375 -1.75 5.875 C-3.22047178 8.37480203 -4.41403076 8.83316022 -7 10 C-6.02223933 8.51990357 -5.0427506 7.04094856 -4.0625 5.5625 C-3.51722656 4.73878906 -2.97195312 3.91507813 -2.41015625 3.06640625 C-1 1 -1 1 0 0 Z " fill="#2C211D" transform="translate(75,54)"/>
<path d="M0 0 C0.66 0 1.32 0 2 0 C2 3.3 2 6.6 2 10 C1.67 10 1.34 10 1 10 C0.67 8.35 0.34 6.7 0 5 C-0.99 5.495 -0.99 5.495 -2 6 C-1.34 4.02 -0.68 2.04 0 0 Z " fill="#B9B3AC" transform="translate(44,59)"/>
</svg>
